# xmcd
#
# Track frame offsets:
#	182
#	16555
#	37440
#	69925
#	92545
#	114470
#	137797
#	139840
#	154602
#	172980
#	199677
#	219927
#
# Disc length: 3313 seconds
#
# Revision: 0
# Processed by: cddbd v1.4PL0 Copyright (c) Steve Scherf et al.
# Submitted via: EasyCDDAExtractor 5.0.0.0
#
DISCID=9b0cef0c
DTITLE=Mary J. Blige - What's The 411? (Remix)
DYEAR=1993
DGENRE=R&B
TTITLE0=Leave A Message
TTITLE1=You Don't Have To Worry (Feat. Craig Mack)
TTITLE2=My Love (Feat. Heavy D.)
TTITLE3=Real Love
TTITLE4=What's The 411? (Feat. The Notorious B.I.G.)
TTITLE5=Reminisce
TTITLE6=Mary and Andre
TTITLE7=Sweet Thing
TTITLE8=Love No Limit
TTITLE9=You Remind Me
TTITLE10=Changes I've Been Going Through
TTITLE11=I Don't Want To Do Anything (Duet With K-Ci Hailey)
EXTD=
EXTT0=
EXTT1=
EXTT2=
EXTT3=
EXTT4=
EXTT5=
EXTT6=
EXTT7=
EXTT8=
EXTT9=
EXTT10=
EXTT11=
PLAYORDER=
